<svg xmlns="http://www.w3.org/2000/svg" xmlns:xlink="http://www.w3.org/1999/xlink" width="1920" height="1080"
  viewBox="0 0 1920 1080" fill="none" preserveAspectRatio="none">
  <g opacity="0.3">
    <g clip-path="url(#clip-path-W56hZBwh42qOsoT_qestt)">
      <path d="M1920 0L0 0L0 1080L1920 1080L1920 0Z" fill="url(#linear_fill_2EUn9YeArwxt3o5avMzkA)">
      </path>
      <path fill="#000000" d="M1920 0L-0.00012207 0">
      </path>
      <path d="M1920 -2L0 -2L0 2L1920 2L1920 -2Z" fill-rule="evenodd" fill="#010206">
      </path>
      <path fill="#000000" d="M1920 63.2812L-0.00012207 63.2812">
      </path>
      <path d="M1920 61.2814L0 61.2814L0 65.2811L1920 65.2811L1920 61.2814Z" fill-rule="evenodd" fill="#030715">
      </path>
      <path fill="#000000" d="M1920 126.562L-0.00012207 126.562">
      </path>
      <path d="M1920 124.563L0 124.563L0 128.562L1920 128.562L1920 124.563Z" fill-rule="evenodd" fill="#060C23">
      </path>
      <path fill="#000000" d="M1920 189.844L-0.00012207 189.844">
      </path>
      <path d="M1920 187.84L0 187.84L0 191.847L1920 191.847L1920 187.84Z" fill-rule="evenodd" fill="#081131">
      </path>
      <path fill="#000000" d="M1920 253.125L-0.00012207 253.125">
      </path>
      <path d="M1920 251.122L0 251.122L0 255.128L1920 255.128L1920 251.122Z" fill-rule="evenodd" fill="#0B163F">
      </path>
      <path fill="#000000" d="M1920 316.406L-0.00012207 316.406">
      </path>
      <path d="M1920 314.403L0 314.403L0 318.41L1920 318.41L1920 314.403Z" fill-rule="evenodd" fill="#0D1C4D">
      </path>
      <path fill="#000000" d="M1920 379.688L-0.00012207 379.688">
      </path>
      <path d="M1920 377.684L0 377.684L0 381.691L1920 381.691L1920 377.684Z" fill-rule="evenodd" fill="#0F215B">
      </path>
      <path fill="#000000" d="M1920 442.969L-0.00012207 442.969">
      </path>
      <path d="M1920 440.965L0 440.965L0 444.972L1920 444.972L1920 440.965Z" fill-rule="evenodd" fill="#12266A">
      </path>
      <path fill="#000000" d="M1920 506.25L-0.00012207 506.25">
      </path>
      <path d="M1920 504.247L0 504.247L0 508.253L1920 508.253L1920 504.247Z" fill-rule="evenodd" fill="#142B78">
      </path>
      <path fill="#000000" d="M1920 569.531L-0.00012207 569.531">
      </path>
      <path d="M1920 567.528L0 567.528L0 571.535L1920 571.535L1920 567.528Z" fill-rule="evenodd" fill="#173086">
      </path>
      <path fill="#000000" d="M1920 632.812L-0.00012207 632.812">
      </path>
      <path d="M1920 630.809L0 630.809L0 634.816L1920 634.816L1920 630.809Z" fill-rule="evenodd" fill="#193594">
      </path>
      <path fill="#000000" d="M1920 696.094L-0.00012207 696.094">
      </path>
      <path d="M1920 694.09L0 694.09L0 698.097L1920 698.097L1920 694.09Z" fill-rule="evenodd" fill="#1B3AA2">
      </path>
      <path fill="#000000" d="M1920 759.375L-0.00012207 759.375">
      </path>
      <path d="M1920 757.372L0 757.372L0 761.378L1920 761.378L1920 757.372Z" fill-rule="evenodd" fill="#1E3FB0">
      </path>
      <path fill="#000000" d="M1920 822.656L-0.00012207 822.656">
      </path>
      <path d="M1920 820.653L0 820.653L0 824.66L1920 824.66L1920 820.653Z" fill-rule="evenodd" fill="#2044BF">
      </path>
      <path fill="#000000" d="M1920 885.938L-0.00012207 885.938">
      </path>
      <path d="M1920 883.934L0 883.934L0 887.941L1920 887.941L1920 883.934Z" fill-rule="evenodd" fill="#2349CD">
      </path>
      <path fill="#000000" d="M1920 949.219L-0.00012207 949.219">
      </path>
      <path d="M1920 947.215L0 947.215L0 951.222L1920 951.222L1920 947.215Z" fill-rule="evenodd" fill="#254EDB">
      </path>
      <path fill="#000000" d="M1920 1012.5L-0.00012207 1012.5">
      </path>
      <path d="M1920 1010.5L0 1010.5L0 1014.5L1920 1014.5L1920 1010.5Z" fill-rule="evenodd" fill="#2753E9">
      </path>
      <path fill="#000000" d="M1920 1075.78L-0.00012207 1075.78">
      </path>
      <path d="M1920 1073.78L0 1073.78L0 1077.78L1920 1077.78L1920 1073.78Z" fill-rule="evenodd" fill="#2A58F7">
      </path>
      <path d="M1920 0L1920 927.281L1107.43 0L1920 0Z" fill="#000000">
      </path>
      <path fill="#000000" d="M1924.27 63.2812L1864.55 -4.21875">
      </path>
      <path d="M1925.76 61.956L1866.05 -5.54401L1863.05 -2.89353L1922.77 64.6064L1925.76 61.956Z" fill-rule="evenodd"
        fill="#010206">
      </path>
      <path fill="#000000" d="M1924.27 126.562L1809.09 -4.21875">
      </path>
      <path d="M1925.77 125.24L1810.6 -5.54053L1807.59 -2.89693L1922.77 127.884L1925.77 125.24Z" fill-rule="evenodd"
        fill="#030715">
      </path>
      <path fill="#000000" d="M1924.27 189.844L1753.64 -4.21875">
      </path>
      <path d="M1925.77 188.523L1755.14 -5.53937L1752.14 -2.89817L1922.76 191.164L1925.77 188.523Z" fill-rule="evenodd"
        fill="#060C23">
      </path>
      <path fill="#000000" d="M1924.27 253.125L1698.19 -4.21875">
      </path>
      <path d="M1925.77 251.805L1699.69 -5.53876L1696.69 -2.89878L1922.76 254.445L1925.77 251.805Z" fill-rule="evenodd"
        fill="#081131">
      </path>
      <path fill="#000000" d="M1924.27 316.406L1642.74 -4.21875">
      </path>
      <path d="M1925.77 315.086L1644.24 -5.53839L1641.23 -2.89915L1922.76 317.726L1925.77 315.086Z" fill-rule="evenodd"
        fill="#0B163F">
      </path>
      <path fill="#000000" d="M1924.27 379.688L1587.29 -4.21875">
      </path>
      <path d="M1925.77 378.368L1588.79 -5.53815L1585.78 -2.89941L1922.76 381.007L1925.77 378.368Z" fill-rule="evenodd"
        fill="#0D1C4D">
      </path>
      <path fill="#000000" d="M1924.27 442.969L1531.83 -4.21875">
      </path>
      <path d="M1925.77 441.649L1533.33 -5.53796L1530.33 -2.89958L1922.76 444.288L1925.77 441.649Z" fill-rule="evenodd"
        fill="#0F215B">
      </path>
      <path fill="#000000" d="M1924.27 506.25L1476.38 -4.21875">
      </path>
      <path d="M1925.77 504.931L1477.88 -5.53778L1474.88 -2.89968L1922.76 507.569L1925.77 504.931Z" fill-rule="evenodd"
        fill="#12266A">
      </path>
      <path fill="#000000" d="M1924.27 569.531L1420.93 -4.21875">
      </path>
      <path d="M1925.77 568.212L1422.43 -5.53772L1419.42 -2.89982L1922.76 570.85L1925.77 568.212Z" fill-rule="evenodd"
        fill="#142B78">
      </path>
      <path fill="#000000" d="M1924.27 632.812L1365.47 -4.21875">
      </path>
      <path d="M1925.77 631.493L1366.98 -5.5376L1363.97 -2.89986L1922.76 634.131L1925.77 631.493Z" fill-rule="evenodd"
        fill="#173086">
      </path>
      <path fill="#000000" d="M1924.27 696.094L1310.02 -4.21875">
      </path>
      <path d="M1925.77 694.775L1311.52 -5.53754L1308.52 -2.89994L1922.76 697.412L1925.77 694.775Z" fill-rule="evenodd"
        fill="#193594">
      </path>
      <path fill="#000000" d="M1924.27 759.375L1254.57 -4.21875">
      </path>
      <path d="M1925.77 758.056L1256.07 -5.53748L1253.06 -2.9L1922.76 760.693L1925.77 758.056Z" fill-rule="evenodd"
        fill="#1B3AA2">
      </path>
      <path fill="#000000" d="M1924.27 822.656L1199.12 -4.21875">
      </path>
      <path d="M1925.77 821.337L1200.62 -5.53741L1197.61 -2.90003L1922.76 823.975L1925.77 821.337Z" fill-rule="evenodd"
        fill="#1E3FB0">
      </path>
      <path fill="#000000" d="M1924.27 885.938L1143.66 -4.21875">
      </path>
      <path d="M1925.77 884.619L1145.17 -5.53741L1142.16 -2.90011L1922.76 887.256L1925.77 884.619Z" fill-rule="evenodd"
        fill="#2044BF">
      </path>
      <path d="M0.0065918 0L0.0065918 1143.28L2211.16 0L0.0065918 0Z" fill="#000000">
      </path>
      <path fill="#000000" d="M-4.26675 63.2812L122.389 -4.21875">
      </path>
      <path d="M-3.32587 65.0462L123.33 -2.45378L121.448 -5.98376L-5.20686 61.5162L-3.32587 65.0462Z"
        fill-rule="evenodd" fill="#010206">
      </path>
      <path fill="#000000" d="M-4.26714 126.562L244.778 -4.21875">
      </path>
      <path d="M-3.33778 128.333L245.708 -2.44804L243.848 -5.98944L-5.19678 124.792L-3.33778 128.333Z"
        fill-rule="evenodd" fill="#030715">
      </path>
      <path fill="#000000" d="M-4.26733 189.844L367.167 -4.21875">
      </path>
      <path d="M-3.34161 191.616L368.094 -2.44611L366.241 -5.99139L-5.1936 188.071L-3.34161 191.616Z"
        fill-rule="evenodd" fill="#060C23">
      </path>
      <path fill="#000000" d="M-4.26749 253.125L489.557 -4.21875">
      </path>
      <path d="M-3.34338 254.898L490.481 -2.44513L488.632 -5.99237L-5.19138 251.351L-3.34338 254.898Z"
        fill-rule="evenodd" fill="#081131">
      </path>
      <path fill="#000000" d="M-4.26752 316.406L611.946 -4.21875">
      </path>
      <path d="M-3.34418 318.18L612.869 -2.44452L611.023 -5.99292L-5.19116 314.632L-3.34418 318.18Z" fill-rule="evenodd"
        fill="#0B163F">
      </path>
      <path fill="#000000" d="M-4.26569 379.688L734.335 -4.21875">
      </path>
      <path d="M-3.34314 381.462L735.257 -2.44415L733.412 -5.99335L-5.18811 377.913L-3.34314 381.462Z"
        fill-rule="evenodd" fill="#0D1C4D">
      </path>
      <path fill="#000000" d="M-4.26587 442.969L856.724 -4.21875">
      </path>
      <path d="M-3.34393 444.743L857.646 -2.44389L855.802 -5.99365L-5.18793 441.194L-3.34393 444.743Z"
        fill-rule="evenodd" fill="#0F215B">
      </path>
      <path fill="#000000" d="M-4.26605 506.25L979.113 -4.21875">
      </path>
      <path d="M-3.34473 508.025L980.035 -2.44366L978.192 -5.99384L-5.18774 504.475L-3.34473 508.025Z"
        fill-rule="evenodd" fill="#12266A">
      </path>
      <path fill="#000000" d="M-4.26611 569.531L1101.5 -4.21875">
      </path>
      <path d="M-3.34753 571.306L1102.42 -2.44352L1100.58 -5.99402L-5.1875 567.756L-3.34753 571.306Z"
        fill-rule="evenodd" fill="#142B78">
      </path>
      <path fill="#000000" d="M-4.26624 632.812L1223.89 -4.21875">
      </path>
      <path d="M-3.34839 634.588L1224.81 -2.44336L1222.97 -5.99414L-5.18835 631.037L-3.34839 634.588Z"
        fill-rule="evenodd" fill="#173086">
      </path>
      <path fill="#000000" d="M-4.26648 696.094L1346.28 -4.21875">
      </path>
      <path d="M-3.34912 697.869L1347.2 -2.44328L1345.36 -5.99426L-5.18909 694.318L-3.34912 697.869Z"
        fill-rule="evenodd" fill="#193594">
      </path>
      <path fill="#000000" d="M-4.2666 759.375L1468.67 -4.21875">
      </path>
      <path d="M-3.35022 761.15L1469.59 -2.44316L1467.75 -5.99432L-5.19019 757.599L-3.35022 761.15Z" fill-rule="evenodd"
        fill="#1B3AA2">
      </path>
      <path fill="#000000" d="M-4.26685 822.656L1591.06 -4.21875">
      </path>
      <path d="M-3.35095 824.432L1591.98 -2.44306L1590.14 -5.99438L-5.19092 820.88L-3.35095 824.432Z"
        fill-rule="evenodd" fill="#1E3FB0">
      </path>
      <path fill="#000000" d="M-4.26697 885.938L1713.45 -4.21875">
      </path>
      <path d="M-3.35168 887.713L1714.37 -2.44301L1712.53 -5.99445L-5.19165 884.162L-3.35168 887.713Z"
        fill-rule="evenodd" fill="#2044BF">
      </path>
      <path fill="#000000" d="M-4.26733 949.219L1835.84 -4.21875">
      </path>
      <path d="M-3.34265 950.994L1836.76 -2.44295L1834.92 -5.99451L-5.18262 947.443L-3.34265 950.994Z"
        fill-rule="evenodd" fill="#2349CD">
      </path>
      <path fill="#000000" d="M-4.26733 1012.5L1958.23 -4.21875">
      </path>
      <path d="M-3.34351 1014.27L1959.15 -2.44291L1957.31 -5.99457L-5.18347 1010.72L-3.34351 1014.27Z"
        fill-rule="evenodd" fill="#254EDB">
      </path>
      <path fill="#000000" d="M-4.26758 1075.78L2080.62 -4.21875">
      </path>
      <path d="M-3.34424 1077.56L2081.54 -2.44289L2079.7 -5.99463L-5.18433 1074L-3.34424 1077.56Z" fill-rule="evenodd"
        fill="#2753E9">
      </path>
      <path fill="#000000" d="M-4.26978 1139.06L2203 -4.21875">
      </path>
      <path d="M-3.34497 1140.84L2203.92 -2.44287L2202.09 -5.99469L-5.18506 1137.29L-3.34497 1140.84Z"
        fill-rule="evenodd" fill="#2A58F7">
      </path>
    </g>
  </g>
  <defs>
    <clipPath id="clip-path-W56hZBwh42qOsoT_qestt">
      <path d="M1920 1080L0 1080L0 0L1920 0L1920 1080Z" fill="white" />
    </clipPath>
    <linearGradient id="linear_fill_2EUn9YeArwxt3o5avMzkA" x1="1920" y1="0" x2="1920" y2="0"
      gradientUnits="userSpaceOnUse">
      <stop offset="0" stop-color="#000000" />
      <stop offset="1" stop-color="#000000" />
    </linearGradient>
  </defs>
</svg>