<svg xmlns="http://www.w3.org/2000/svg" xmlns:xlink="http://www.w3.org/1999/xlink" viewBox="0 0 103.66 98.77"><defs><style>.a{fill:url(#a);}.b{fill:url(#b);}.c{fill:url(#c);}</style><linearGradient id="a" x1="53.62" y1="64" x2="60.52" y2="103.14" gradientUnits="userSpaceOnUse"><stop offset="0" stop-color="#a18eff" stop-opacity="0"/><stop offset="0.5" stop-color="#a18eff"/></linearGradient><linearGradient id="b" x1="12.39" y1="37.78" x2="49.88" y2="64.04" gradientUnits="userSpaceOnUse"><stop offset="0.5" stop-color="#a18eff"/><stop offset="1" stop-color="#a18eff" stop-opacity="0"/></linearGradient><linearGradient id="c" x1="58.49" y1="63.02" x2="95.1" y2="26.4" xlink:href="#a"/></defs><title>未标题-2svg</title><path class="a" d="M55.28,68.78,97.8,81.85c-13.08,11.27-35,17.81-54.62,17.81-9.23,0-18-1.44-25.09-4.5L55.28,68.78m0-5a5,5,0,0,0-2.89.92L15.19,91.08a5,5,0,0,0,.92,8.67c7.47,3.21,16.83,4.9,27.07,4.9,21.76,0,44.48-7.47,57.89-19a5,5,0,0,0-1.79-8.57L56.75,64a5,5,0,0,0-1.47-.22Z" transform="translate(-3.33 -5.89)"/><path class="b" d="M47,10.89l.15,48.33-38.6,27C5.94,52.83,26.57,16.3,47,10.89m0-5a5,5,0,0,0-1.28.17C21.76,12.4.88,52.31,3.57,86.62a5,5,0,0,0,7.85,3.71l38.6-27a5,5,0,0,0,2.13-4.11L52,10.87a5,5,0,0,0-5-5Z" transform="translate(-3.33 -5.89)"/><path class="c" d="M60,11c21.56.2,43,27.25,42,59L60,57.46V11m0-5a5,5,0,0,0-5,5V57.46a5,5,0,0,0,3.57,4.79l42,12.54A5,5,0,0,0,107,70.16c.6-18.86-6.32-37.69-18.5-50.38C80,11,70,6.13,60,6Z" transform="translate(-3.33 -5.89)"/></svg>