<?xml version="1.0" standalone="no"?><!DOCTYPE svg PUBLIC "-//W3C//DTD SVG 1.1//EN" "http://www.w3.org/Graphics/SVG/1.1/DTD/svg11.dtd"><svg t="1641886793873" class="icon" viewBox="0 0 1024 1024" version="1.1" xmlns="http://www.w3.org/2000/svg" p-id="3342" xmlns:xlink="http://www.w3.org/1999/xlink" width="128" height="128"><defs><style type="text/css"></style></defs><path d="M600.541867 83.039573c-44.499627 0.86016-88.777387 13.216427-127.901014 38.140587L272.766293 248.552107a229.15072 229.15072 0 0 0-103.611733 153.279146 241.64352 241.64352 0 0 0 23.753387 155.118934 229.45792 229.45792 0 0 0-34.2528 85.681493 244.1728 244.1728 0 0 0 41.765546 184.85248c79.704747 114.039467 237.11744 147.83488 350.9248 75.332267l199.881387-126.83264a229.91872 229.91872 0 0 0 103.611733-153.279147 241.565013 241.565013 0 0 0-23.831893-155.040427 230.912 230.912 0 0 0 34.33472-85.681493 244.48 244.48 0 0 0-41.765547-184.85248v-0.6144c-52.30592-74.837333-138.079573-115.121493-223.034026-113.47968z m17.534293 97.8944a158.72 158.72 0 0 1 123.1872 68.160854 146.688 146.688 0 0 1 25.1392 111.127893 154.426027 154.426027 0 0 1-4.754773 18.619733l-3.833174 11.502934-10.192213-7.66976a258.88768 258.88768 0 0 0-78.17216-39.082667l-7.65952-2.22208 0.68608-7.666347a44.909227 44.909227 0 0 0-8.12032-29.733546 47.745707 47.745707 0 0 0-51.039573-18.47296 43.83744 43.83744 0 0 0-12.26752 5.36576l-199.94624 127.146666a41.76896 41.76896 0 0 0-18.78016 27.818667 44.755627 44.755627 0 0 0 7.666346 33.56672 47.899307 47.899307 0 0 0 50.961067 19.008853 45.984427 45.984427 0 0 0 12.26752-5.369173l76.639573-48.585387a142.626133 142.626133 0 0 1 40.61184-17.85856 158.641493 158.641493 0 0 1 170.37312 63.153494 146.8416 146.8416 0 0 1 25.132374 111.127893 137.949867 137.949867 0 0 1-62.306987 92.42624l-199.953067 127.371947a146.9952 146.9952 0 0 1-40.61184 17.851733A158.8736 158.8736 0 0 1 282.658133 775.304533a146.688 146.688 0 0 1-25.05728-111.127893 130.286933 130.286933 0 0 1 4.744534-18.466133l3.761493-11.502934 10.267307 7.666347a258.88768 258.88768 0 0 0 77.94688 38.77888l7.65952 2.218667-0.68608 7.66976a45.216427 45.216427 0 0 0 8.352426 29.504853 47.899307 47.899307 0 0 0 51.346774 19.008853 44.834133 44.834133 0 0 0 12.260693-5.369173l199.56736-127.371947a41.536853 41.536853 0 0 0 18.78016-27.897173 44.219733 44.219733 0 0 0-7.666347-33.488213 47.899307 47.899307 0 0 0-51.346773-19.00544 43.83744 43.83744 0 0 0-12.260693 5.358933l-76.639574 48.667307a146.3808 146.3808 0 0 1-40.54016 17.780053 158.795093 158.795093 0 0 1-170.141013-63.146667 146.8416 146.8416 0 0 1-24.907093-111.127893A137.949867 137.949867 0 0 1 330.40384 331.025067l200.178347-127.371947a145.998507 145.998507 0 0 1 40.31488-17.783467 158.72 158.72 0 0 1 47.179093-4.928853z" fill="#FF5722" p-id="3343"></path></svg>